<svg width="1920" height="1080" viewBox="0 0 1920 1080" fill="none" xmlns="http://www.w3.org/2000/svg">
<g clip-path="url(#clip0_68_90)">
<path d="M1920 0H0V1080H1920V0Z" fill="url(#paint0_linear_68_90)"/>
<path d="M0 771L53.3 788.8C106.7 806.7 213.3 842.3 320 844.8C426.7 847.3 533.3 816.7 640 795.5C746.7 774.3 853.3 762.7 960 775.2C1066.7 787.7 1173.3 824.3 1280 842.2C1386.7 860 1493.3 859 1600 843.3C1706.7 827.7 1813.3 797.3 1866.7 782.2L1920 767V1081H1866.7C1813.3 1081 1706.7 1081 1600 1081C1493.3 1081 1386.7 1081 1280 1081C1173.3 1081 1066.7 1081 960 1081C853.3 1081 746.7 1081 640 1081C533.3 1081 426.7 1081 320 1081C213.3 1081 106.7 1081 53.3 1081H0V771Z" fill="#2F518A"/>
<path d="M0 798L53.3 796.8C106.7 795.7 213.3 793.3 320 815.5C426.7 837.7 533.3 884.3 640 892.3C746.7 900.3 853.3 869.7 960 846.8C1066.7 824 1173.3 809 1280 805.8C1386.7 802.7 1493.3 811.3 1600 813.8C1706.7 816.3 1813.3 812.7 1866.7 810.8L1920 809V1081H1866.7C1813.3 1081 1706.7 1081 1600 1081C1493.3 1081 1386.7 1081 1280 1081C1173.3 1081 1066.7 1081 960 1081C853.3 1081 746.7 1081 640 1081C533.3 1081 426.7 1081 320 1081C213.3 1081 106.7 1081 53.3 1081H0V798Z" fill="#6779A7"/>
<path d="M0 909L53.3 918C106.7 927 213.3 945 320 937.5C426.7 930 533.3 897 640 895.2C746.7 893.3 853.3 922.7 960 923.2C1066.7 923.7 1173.3 895.3 1280 896C1386.7 896.7 1493.3 926.3 1600 924.2C1706.7 922 1813.3 888 1866.7 871L1920 854V1081H1866.7C1813.3 1081 1706.7 1081 1600 1081C1493.3 1081 1386.7 1081 1280 1081C1173.3 1081 1066.7 1081 960 1081C853.3 1081 746.7 1081 640 1081C533.3 1081 426.7 1081 320 1081C213.3 1081 106.7 1081 53.3 1081H0V909Z" fill="#99A3C4"/>
<path d="M0 990L53.3 983.8C106.7 977.7 213.3 965.3 320 952.2C426.7 939 533.3 925 640 919.7C746.7 914.3 853.3 917.7 960 923.7C1066.7 929.7 1173.3 938.3 1280 942.8C1386.7 947.3 1493.3 947.7 1600 950.5C1706.7 953.3 1813.3 958.7 1866.7 961.3L1920 964V1081H1866.7C1813.3 1081 1706.7 1081 1600 1081C1493.3 1081 1386.7 1081 1280 1081C1173.3 1081 1066.7 1081 960 1081C853.3 1081 746.7 1081 640 1081C533.3 1081 426.7 1081 320 1081C213.3 1081 106.7 1081 53.3 1081H0V990Z" fill="#CCD0E1"/>
<path d="M0 1014L53.3 1006.8C106.7 999.7 213.3 985.3 320 986.5C426.7 987.7 533.3 1004.3 640 1002.7C746.7 1001 853.3 981 960 975.5C1066.7 970 1173.3 979 1280 993.3C1386.7 1007.7 1493.3 1027.3 1600 1026.8C1706.7 1026.3 1813.3 1005.7 1866.7 995.3L1920 985V1081H1866.7C1813.3 1081 1706.7 1081 1600 1081C1493.3 1081 1386.7 1081 1280 1081C1173.3 1081 1066.7 1081 960 1081C853.3 1081 746.7 1081 640 1081C533.3 1081 426.7 1081 320 1081C213.3 1081 106.7 1081 53.3 1081H0V1014Z" fill="white"/>
</g>
<defs>
<linearGradient id="paint0_linear_68_90" x1="960" y1="0" x2="960" y2="1080" gradientUnits="userSpaceOnUse">
<stop stop-color="#182E53"/>
<stop offset="1" stop-color="#2F518A"/>
</linearGradient>
<clipPath id="clip0_68_90">
<rect width="1920" height="1080" fill="white"/>
</clipPath>
</defs>
</svg>
