<svg width="1920" height="334" viewBox="0 0 1920 334" fill="none" xmlns="http://www.w3.org/2000/svg">
<path d="M0 0L32 0.700012C64 1.30001 128 2.69999 192 24.8C256 47 320 90 384 102.3C448 114.7 512 96.3 576 72.2C640 48 704 18 768 25.7C832 33.3 896 78.7 960 110.5C1024 142.3 1088 160.7 1152 148.2C1216 135.7 1280 92.3 1344 65C1408 37.7 1472 26.3 1536 44C1600 61.7 1664 108.3 1728 117.7C1792 127 1856 99 1888 85L1920 71V334H1888C1856 334 1792 334 1728 334C1664 334 1600 334 1536 334C1472 334 1408 334 1344 334C1280 334 1216 334 1152 334C1088 334 1024 334 960 334C896 334 832 334 768 334C704 334 640 334 576 334C512 334 448 334 384 334C320 334 256 334 192 334C128 334 64 334 32 334H0V0Z" fill="#F9F9F9"/>
<path d="M0 111L32 102C64 92.9998 128 74.9999 192 77.1999C256 79.2999 320 101.7 384 123C448 144.3 512 164.7 576 173.3C640 182 704 179 768 157.8C832 136.7 896 97.2999 960 94.1999C1024 90.9999 1088 124 1152 146.3C1216 168.7 1280 180.3 1344 182.2C1408 184 1472 176 1536 156C1600 136 1664 104 1728 91.7998C1792 79.6998 1856 87.2999 1888 91.1999L1920 94.9998V334H1888C1856 334 1792 334 1728 334C1664 334 1600 334 1536 334C1472 334 1408 334 1344 334C1280 334 1216 334 1152 334C1088 334 1024 334 960 334C896 334 832 334 768 334C704 334 640 334 576 334C512 334 448 334 384 334C320 334 256 334 192 334C128 334 64 334 32 334H0V111Z" fill="#CCD0E1"/>
<path d="M0 138L32 149.2C64 160.3 128 182.7 192 197.7C256 212.7 320 220.3 384 207.3C448 194.3 512 160.7 576 161C640 161.3 704 195.7 768 211.2C832 226.7 896 223.3 960 226.7C1024 230 1088 240 1152 239.8C1216 239.7 1280 229.3 1344 217.5C1408 205.7 1472 192.3 1536 185C1600 177.7 1664 176.3 1728 168.8C1792 161.3 1856 147.7 1888 140.8L1920 134V334H1888C1856 334 1792 334 1728 334C1664 334 1600 334 1536 334C1472 334 1408 334 1344 334C1280 334 1216 334 1152 334C1088 334 1024 334 960 334C896 334 832 334 768 334C704 334 640 334 576 334C512 334 448 334 384 334C320 334 256 334 192 334C128 334 64 334 32 334H0V138Z" fill="#99A3C4"/>
<path d="M0 178L32 180.2C64 182.3 128 186.7 192 196.8C256 207 320 223 384 224.7C448 226.3 512 213.7 576 212.5C640 211.3 704 221.7 768 227C832 232.3 896 232.7 960 224.7C1024 216.7 1088 200.3 1152 202.5C1216 204.7 1280 225.3 1344 223.3C1408 221.3 1472 196.7 1536 198.3C1600 200 1664 228 1728 231C1792 234 1856 212 1888 201L1920 190V334H1888C1856 334 1792 334 1728 334C1664 334 1600 334 1536 334C1472 334 1408 334 1344 334C1280 334 1216 334 1152 334C1088 334 1024 334 960 334C896 334 832 334 768 334C704 334 640 334 576 334C512 334 448 334 384 334C320 334 256 334 192 334C128 334 64 334 32 334H0V178Z" fill="#6779A7"/>
<path d="M0 284L32 283.3C64 282.7 128 281.3 192 279.3C256 277.3 320 274.7 384 265.3C448 256 512 240 576 237.7C640 235.3 704 246.7 768 254.8C832 263 896 268 960 265.3C1024 262.7 1088 252.3 1152 254.3C1216 256.3 1280 270.7 1344 280.5C1408 290.3 1472 295.7 1536 285.8C1600 276 1664 251 1728 244.8C1792 238.7 1856 251.3 1888 257.7L1920 264V334H1888C1856 334 1792 334 1728 334C1664 334 1600 334 1536 334C1472 334 1408 334 1344 334C1280 334 1216 334 1152 334C1088 334 1024 334 960 334C896 334 832 334 768 334C704 334 640 334 576 334C512 334 448 334 384 334C320 334 256 334 192 334C128 334 64 334 32 334H0V284Z" fill="#192F55"/>
</svg>
